<?xml version="1.0" encoding="UTF-8"?>
<svg width="752pt" height="752pt" version="1.1" viewBox="0 0 752 752" xmlns="http://www.w3.org/2000/svg">
 <g>
  <path d="m752 376c0 134.33-71.664 258.46-188 325.62-116.34 67.168-259.66 67.168-376 0-116.34-67.164-188-191.29-188-325.62s71.664-258.46 188-325.62c116.34-67.168 259.66-67.168 376 0 116.34 67.164 188 191.29 188 325.62" fill="#0070dc"/>
  <path d="m566.13 523.55c-0.007812-60.062-42.195-110.22-98.543-122.56 10.121 10.25 16.754 23.93 18.047 39.109 13.684 3.0625 23.941 15.293 23.941 29.879 0 16.895-13.742 30.641-30.641 30.641-16.898 0-30.641-13.742-30.641-30.641 0-14.316 9.8945-26.344 23.191-29.688-1.7383-16.328-11.48-30.301-25.219-37.91l-70.27 65.848-71.379-66.891c-15.859 7.832-26.898 23.91-27.496 42.617 2.7266 1.5859 4.9336 4.0391 6.2891 7.0039 10.066 4.7539 18.969 14.754 25.773 28.996 1.1406 2.4023 1.2891 5.1055 0.44922 7.5781 4.082 10.512 6.418 21.992 6.418 31.641 0 13.516 0 26.293-14.727 29.574-1.5977 1.3242-3.5898 2.0547-5.6914 2.0547h-9.8398c-4.9375 0-8.9609-4.0195-8.9609-8.957l0.03125-0.63281c0.33203-4.625 4.2461-8.3203 8.9258-8.3203h9.8398c1.0039 0 1.9922 0.17188 2.9414 0.50391 0.59375-0.17188 0.78516-0.30469 0.78516-0.30469 1.0977-1.9492 1.0977-10.035 1.0977-13.918 0-7.8281-1.9609-17.285-5.3984-26.09-1.7812-1.0117-3.2148-2.5469-4.1055-4.3984-5.9727-12.496-14.09-20.566-20.688-20.566-6.7422 0-15.262 8.7227-21.203 21.703-0.97266 2.1172-2.6719 3.8438-4.7695 4.8633-3.1016 8.4102-4.8086 17.066-4.8086 24.484 0 3.2578 0 11.926 1.25 13.945 0.015625 0 0.28906 0.17187 1.0703 0.36328 1.0195-0.38672 2.1133-0.59375 3.207-0.59375h9.8594c4.5508 0 8.3633 3.4336 8.8789 7.9141l0.050781 0.097657 0.019531 0.59375c0 5.2852-4.0156 9.3047-8.9492 9.3047h-9.8594c-1.957 0-3.8516-0.65234-5.4023-1.8438-5.625-1.0625-9.5977-3.5469-12.117-7.5898-3.0391-4.8906-3.5938-11.312-3.5938-22.203 0-9.5625 2.2031-20.559 6.2148-31.062-0.58594-2.25-0.39453-4.5938 0.58594-6.7109 4.1758-9.125 9.4805-16.941 15.348-22.594 3.2266-3.1016 6.6875-5.6016 10.309-7.4258 1.3672-3.1914 3.7422-5.8008 6.6367-7.4531 0.40625-16.238 6.9336-30.957 17.375-41.969-54.312 13.812-94.492 62.996-94.492 121.61 0 62.488 45.664 65.562 105.46 65.562 6.5156 0 13.215-0.039062 20.043-0.039062h129.27c6.7969 0 13.496 0.039062 20.02 0.039062 59.785 0 105.46-3.0664 105.46-65.562zm-110 13.121c0 1.6289-1.4727 2.9453-3.2969 2.9453h-17.91v17.91c0 1.8242-1.3242 3.3008-2.9453 3.3008h-17.68c-1.6289 0-2.9453-1.4805-2.9453-3.3008v-17.91h-17.914c-1.8125 0-3.293-1.3164-3.293-2.9453v-17.676c0-1.6328 1.4805-2.9453 3.293-2.9453h17.914v-17.914c0-1.8242 1.3164-3.3008 2.9453-3.3008h17.68c1.6211 0 2.9453 1.4805 2.9453 3.3008v17.91h17.91c1.8281 0 3.2969 1.3125 3.2969 2.9453z" fill="#fff"/>
  <path d="m484.41 271.31c0 59.875-48.539 108.41-108.42 108.41-59.875 0-108.42-48.539-108.42-108.41 0-59.879 48.543-108.42 108.42-108.42 59.879 0 108.42 48.539 108.42 108.42" fill="#fff"/>
  <path d="m493.07 469.98c0 7.8086-6.3281 14.141-14.141 14.141-7.8086 0-14.141-6.332-14.141-14.141 0-7.8125 6.332-14.145 14.141-14.145 7.8125 0 14.141 6.332 14.141 14.145" fill="#fff"/>
 </g>
</svg>
