<?xml version="1.0" encoding="UTF-8"?>
<svg width="752pt" height="752pt" version="1.1" viewBox="0 0 752 752" xmlns="http://www.w3.org/2000/svg">
 <g fill="#053b6f">
  <path d="m585.19 590.82h-418.37c-5.5039 0.019531-10.836-1.8945-15.066-5.4141-0.125 4.0781 1.4062 8.0312 4.2461 10.961 2.8359 2.9258 6.7422 4.582 10.82 4.582h418.37c4.0781 0 7.9805-1.6562 10.82-4.582 2.8398-2.9297 4.3711-6.8828 4.2461-10.961-4.2305 3.5195-9.5664 5.4336-15.066 5.4141z"/>
  <path d="m585.19 578.41h-418.37c-3.5703 0-7.0273-1.2695-9.75-3.5781-2.7266-2.3125-4.5391-5.5156-5.125-9.0391-0.58203-3.5234 0.10547-7.1406 1.9414-10.203l40.406-67.477v-0.003906c2.7227-4.5469 7.6328-7.3281 12.934-7.3281h337.56c5.3008 0 10.211 2.7812 12.934 7.3281l40.406 67.477v0.003907c1.8359 3.0625 2.5234 6.6797 1.9375 10.203-0.58203 3.5234-2.3945 6.7266-5.1211 9.0391-2.7227 2.3086-6.1797 3.5781-9.75 3.5781z"/>
  <path d="m361.67 388.12c0 5.6953-4.6172 10.309-10.309 10.309-5.6953 0-10.309-4.6133-10.309-10.309 0-5.6914 4.6133-10.309 10.309-10.309 5.6914 0 10.309 4.6172 10.309 10.309"/>
  <path d="m452.54 412.16c0.41797 4.0586-0.90234 8.1016-3.6367 11.125-2.7344 3.0273-6.6211 4.7539-10.699 4.75h-124.43c-4.0781-0.003906-7.9609-1.7305-10.695-4.7539-2.7305-3.0273-4.0547-7.0664-3.6445-11.121l5.3594-52.398c0.28906-2.9492 1.6641-5.6875 3.8594-7.6797l5.4297-4.9141-0.003906-0.003907c0.68359 13.621 7.5156 26.191 18.57 34.172-0.78125 2.1797-1.1875 4.4766-1.1953 6.793-0.003907 6.1328 2.8164 11.93 7.6445 15.711 4.832 3.7812 11.133 5.125 17.086 3.6445s10.895-5.6211 13.391-11.223c2.4961-5.6055 2.2734-12.043-0.60547-17.461-2.8789-5.418-8.0898-9.207-14.133-10.27-6.0391-1.0664-12.234 0.71094-16.793 4.8164-12.836-8.6367-15.09-23.484-14.645-34.648l4.6094-4.1992c2.1992-2.0078 5.0742-3.1133 8.0547-3.1055h17.445l16.555 13.52 1.6367-10.582h-3.3125 0.003907c-0.61719 0.003907-1.2109-0.23828-1.6484-0.67578s-0.67969-1.0312-0.67188-1.6484c-0.007813-0.62109 0.23438-1.2188 0.66797-1.6602 0.4375-0.44141 1.0312-0.69141 1.6523-0.69531h15.191c1.2852 0.019531 2.3203 1.0703 2.3203 2.3555-0.003906 1.2812-1.0391 2.3203-2.3203 2.3242h-3.3125l1.6367 10.582 16.594-13.52h17.41-0.003907c2.9922-0.007812 5.875 1.0977 8.0898 3.1055l1.9805 1.8086c-0.085937 6.1719-1.8828 12.195-5.1914 17.402-3.3086 5.207-8 9.3945-13.547 12.094l-6.3164 2.7305c-1.7539 0.76172-2.8945 2.4883-2.9023 4.4023v7.7852c-5.0859 1.9727-8.4336 6.8672-8.4297 12.32v12.668h9.7969v-6.418h-2.5938v-6.25c-0.007812-1.6055 0.62891-3.1445 1.7617-4.2812s2.6719-1.7773 4.2773-1.7773c1.6055 0 3.1445 0.64062 4.2812 1.7773 1.1328 1.1367 1.7656 2.6758 1.7617 4.2812v6.2461h-2.6289v6.4219h9.832v-12.668c-0.011719-5.4609-3.3711-10.352-8.4648-12.32v-4.6445l3.5859-1.5352c0.10156-0.035157 0.20312-0.10156 0.30859-0.13672h-0.003906c12.023-5.8867 20.574-17.094 23.074-30.246l8.7383 7.918 0.003906 0.003906c2.2031 1.9883 3.5898 4.7266 3.8906 7.6797z"/>
  <path d="m541.58 243.46h-98.004c0.9375 6.4258 0.94531 12.953 0.027343 19.383h88.285v183.75h-311.77v-183.75h88.223c-0.91406-6.4297-0.91016-12.953 0.003906-19.383h-97.918c-2.5703 0-5.0352 1.0195-6.8516 2.8359-1.8203 1.8203-2.8398 4.2852-2.8398 6.8555v203.13c0 2.5703 1.0195 5.0352 2.8398 6.8555 1.8164 1.8164 4.2812 2.8359 6.8516 2.8359h331.15c2.5703 0 5.0352-1.0195 6.8516-2.8359 1.8164-1.8203 2.8398-4.2852 2.8398-6.8555v-203.13c0-2.5703-1.0234-5.0352-2.8398-6.8555-1.8164-1.8164-4.2812-2.8359-6.8516-2.8359z"/>
  <path d="m473.63 155.46c-0.44141-0.42969-0.875-0.80859-1.3477-1.207-3.1523-2.4648-7.1523-3.5781-11.121-3.0977-3.9727 0.48047-7.5898 2.5156-10.062 5.6602l-38.023 48.547-1.8555-1.3906c-16.629-11.953-38.168-14.695-57.262-7.2969-19.094 7.4023-33.16 23.949-37.387 43.984-4.2305 20.039 1.9492 40.855 16.422 55.344 14.477 14.484 35.289 20.68 55.328 16.465 20.043-4.2109 36.598-18.262 44.016-37.352 7.4141-19.09 4.6875-40.633-7.2539-57.27l-1.3477-1.8203 48.512-38.055 0.003906-0.003906c0.94922-0.75 1.8047-1.6133 2.5547-2.5664 2.2773-2.8906 3.4141-6.5195 3.1953-10.191-0.21484-3.6758-1.7695-7.1445-4.3711-9.75zm-64.5 130.9c-8.8047 8.8125-20.754 13.77-33.215 13.773-12.461 0.003906-24.41-4.9414-33.223-13.75-8.8125-8.8086-13.762-20.758-13.762-33.219 0-12.461 4.9492-24.41 13.762-33.219 8.8125-8.8086 20.762-13.754 33.223-13.75 12.461 0.003906 24.41 4.9609 33.215 13.777 8.7773 8.8164 13.703 20.75 13.703 33.191 0 12.441-4.9258 24.375-13.703 33.195z"/>
 </g>
</svg>
