<?xml version="1.0" encoding="UTF-8"?>
<svg width="752pt" height="752pt" version="1.1" viewBox="0 0 752 752" xmlns="http://www.w3.org/2000/svg">
 <defs>
  <clipPath id="a">
   <path d="m139.21 162h472.79v429h-472.79z"/>
  </clipPath>
 </defs>
 <path d="m752 376c0 134.33-71.664 258.46-188 325.62-116.34 67.168-259.66 67.168-376 0-116.34-67.164-188-191.29-188-325.62s71.664-258.46 188-325.62c116.34-67.168 259.66-67.168 376 0 116.34 67.164 188 191.29 188 325.62" fill="#27ac5f"/>
 <g clip-path="url(#a)">
  <path d="m450.98 351.63 129.86-129.86c19.461 25.48 31.023 57.312 31.023 91.848 0 79.59-61.383 144.84-139.39 151 1.0234-7.8398 1.5547-15.832 1.5547-23.953 0.003906-32.316-8.3672-62.676-23.047-89.039zm-53.176 196.15c59.156-59.156 59.156-155.07 0-214.23-24.422-24.422-55.105-38.75-86.883-43.008v300.25c31.773-4.2578 62.461-18.586 86.883-43.008zm-127.34 43.008c-31.777-4.2578-62.465-18.59-86.883-43.008-59.156-59.156-59.156-155.07 0-214.23 24.422-24.422 55.105-38.75 86.883-43.008zm48.414-331.31c42.766 6.6016 80.656 27.98 108.28 58.754l125.07-125.08c-25.477-19.457-57.309-31.023-91.848-31.023-64.586 0.003907-119.72 40.43-141.51 97.348z" fill="#fff" fill-rule="evenodd"/>
 </g>
</svg>
